<?xml version="1.0" standalone="no"?>
<!DOCTYPE svg PUBLIC "-//W3C//DTD SVG 1.1//EN" "http://www.w3.org/Graphics/SVG/1.1/DTD/svg11.dtd">
<svg version="1.1" xmlns="http://www.w3.org/2000/svg" viewBox="0 0 1440 993" width="1440" height="993"><defs>
	<style>
		svg {
			background: #fff;
		}
	</style>
</defs><g stroke-linecap="round" transform="translate(588 463) rotate(0 129.5 112)"><path d="M162.5 28.25 C176.92 43.52, 192.08 55.69, 226.5 84.75 M162.5 28.25 C184.64 48.21, 207.17 68.61, 226.5 84.75 M226.5 84.75 C260 112.8, 260.84 111.91, 226.5 141.25 M226.5 84.75 C260.94 115.03, 258.12 113.72, 226.5 141.25 M226.5 141.25 C201.81 161.58, 180.56 179.85, 162.5 195.75 M226.5 141.25 C211.7 154.05, 196.1 168.32, 162.5 195.75 M162.5 195.75 C130.72 223.91, 131.82 223.6, 97.5 195.75 M162.5 195.75 C132.12 222.54, 130.36 223.27, 97.5 195.75 M97.5 195.75 C83.9 183, 70.06 171.52, 32.5 141.25 M97.5 195.75 C73.43 174.56, 49.44 154.73, 32.5 141.25 M32.5 141.25 C0.75 112.47, -0.81 112.39, 32.5 84.75 M32.5 141.25 C1.16 113.15, 1.86 112.44, 32.5 84.75 M32.5 84.75 C56.96 64.29, 76.76 44.54, 97.5 28.25 M32.5 84.75 C48.56 72.24, 62.94 58.06, 97.5 28.25 M97.5 28.25 C129.49 -0.73, 130.62 -1.77, 162.5 28.25 M97.5 28.25 C132.06 0.45, 129.3 -0.85, 162.5 28.25" stroke="#1e1e1e" stroke-width="2" fill="none"></path></g><g transform="translate(665 542) rotate(0 57.600006103515625 32.72727115095179)"><text x="0" y="45.8181796113325" font-family="ui-monospace,monospace" font-size="52.36363384152286px" fill="#1e1e1e" text-anchor="start" style="white-space: pre;" direction="ltr" dominant-baseline="alphabetic">Doco</text></g><g stroke-linecap="round" transform="translate(352 17) rotate(0 117.5 103)"><path d="M132.78 1.57 C146.28 1.66, 160.45 7.6, 172.64 13.33 C184.84 19.06, 196.6 26.64, 205.95 35.95 C215.29 45.27, 223.73 57.56, 228.71 69.23 C233.69 80.89, 236.25 93.78, 235.83 105.96 C235.4 118.14, 231.72 130.78, 226.19 142.33 C220.66 153.87, 212.58 166.17, 202.64 175.25 C192.7 184.33, 179.46 191.76, 166.56 196.8 C153.65 201.85, 139.32 204.91, 125.21 205.51 C111.1 206.12, 95.61 204.35, 81.9 200.46 C68.19 196.57, 53.97 189.87, 42.94 182.17 C31.91 174.47, 22.59 164.98, 15.72 154.25 C8.86 143.51, 3.88 130.06, 1.74 117.77 C-0.39 105.48, 0.02 92.3, 2.91 80.48 C5.79 68.67, 11.07 57.09, 19.03 46.86 C27 36.64, 38.98 26.38, 50.68 19.13 C62.37 11.89, 74.03 6.21, 89.2 3.38 C104.37 0.55, 131.43 1.75, 141.7 2.16 C151.96 2.56, 151.33 4.06, 150.77 5.82 M115.06 1.28 C128.67 -0.18, 145.1 3.44, 158.26 7.25 C171.43 11.07, 183.35 16.13, 194.04 24.15 C204.73 32.17, 215.85 44.4, 222.39 55.38 C228.92 66.37, 231.63 77.84, 233.24 90.06 C234.85 102.28, 235.5 116.62, 232.04 128.7 C228.59 140.78, 220.91 152.26, 212.54 162.57 C204.17 172.87, 193.64 183.56, 181.81 190.53 C169.98 197.49, 155.59 201.88, 141.54 204.35 C127.48 206.82, 111.34 207.35, 97.48 205.35 C83.61 203.35, 70.57 198.93, 58.34 192.34 C46.11 185.75, 32.85 175.63, 24.08 165.8 C15.3 155.96, 9.92 145.07, 5.7 133.33 C1.49 121.59, -1.88 107.72, -1.22 95.37 C-0.56 83.02, 3.56 70.53, 9.66 59.25 C15.77 47.97, 24.92 36.44, 35.42 27.7 C45.92 18.96, 59.73 11.31, 72.67 6.81 C85.62 2.31, 105.86 1.7, 113.09 0.7 C120.32 -0.29, 115.94 -0.71, 116.06 0.82" stroke="#1e1e1e" stroke-width="2" fill="none"></path></g><g stroke-linecap="round" transform="translate(302 688) rotate(0 117.5 105.5)"><path d="M99.12 1.11 C112.19 -2.63, 128.02 -1.36, 141.8 1.29 C155.57 3.94, 169.92 10.13, 181.77 17.02 C193.63 23.91, 204.86 32.31, 212.94 42.62 C221.02 52.94, 226.73 66.61, 230.24 78.9 C233.76 91.18, 235.54 103.91, 234.02 116.34 C232.5 128.77, 227.67 142.15, 221.13 153.49 C214.59 164.83, 205.46 175.81, 194.79 184.37 C184.12 192.93, 170.5 200.6, 157.11 204.87 C143.71 209.15, 128.38 210.15, 114.42 210.02 C100.45 209.89, 86.43 208.86, 73.33 204.08 C60.22 199.3, 46.16 190.41, 35.78 181.36 C25.39 172.31, 16.86 161.14, 11.02 149.81 C5.17 138.47, 1.67 125.8, 0.72 113.33 C-0.22 100.86, 1.19 87.04, 5.35 74.96 C9.51 62.88, 16.95 50.8, 25.67 40.87 C34.39 30.95, 43.77 22.21, 57.68 15.4 C71.59 8.59, 98.99 2.23, 109.14 0.02 C119.29 -2.19, 118.49 0.37, 118.57 2.13 M109.25 1.27 C122.13 -1.27, 138.41 0.87, 151.95 4.71 C165.49 8.56, 179.34 16.48, 190.47 24.35 C201.61 32.22, 211.53 41.01, 218.78 51.92 C226.03 62.83, 231.54 77.26, 233.98 89.8 C236.41 102.34, 236.4 114.99, 233.39 127.16 C230.38 139.34, 224.05 152.25, 215.92 162.84 C207.79 173.43, 196.03 183.26, 184.6 190.7 C173.17 198.14, 160.78 204.27, 147.34 207.47 C133.9 210.67, 118.26 211.28, 103.97 209.92 C89.69 208.56, 74.37 205.11, 61.61 199.32 C48.86 193.52, 36.71 185.18, 27.45 175.14 C18.19 165.09, 10.4 151.05, 6.07 139.05 C1.73 127.04, 1.01 115.72, 1.42 103.09 C1.84 90.47, 3.12 75.21, 8.53 63.29 C13.94 51.37, 23.69 40.58, 33.9 31.59 C44.12 22.6, 57.25 14.37, 69.82 9.34 C82.4 4.3, 102.43 2.59, 109.34 1.39 C116.26 0.19, 111.19 0.53, 111.32 2.11" stroke="#1e1e1e" stroke-width="2" fill="none"></path></g><g stroke-linecap="round" transform="translate(10 49) rotate(0 131 114.5)"><path d="M182.18 8.43 C196.23 11.51, 209.88 20.92, 220.61 29.99 C231.34 39.06, 239.7 51.31, 246.54 62.87 C253.38 74.43, 259.71 86.49, 261.66 99.35 C263.61 112.2, 261.66 127.06, 258.23 140.02 C254.8 152.99, 249.05 166.33, 241.06 177.12 C233.06 187.91, 221.97 196.92, 210.26 204.77 C198.55 212.62, 185.04 220.35, 170.79 224.24 C156.53 228.13, 139.77 228.94, 124.74 228.12 C109.7 227.29, 94.49 224.18, 80.58 219.27 C66.66 214.37, 52.13 207.23, 41.25 198.66 C30.37 190.1, 21.99 179.57, 15.31 167.9 C8.63 156.24, 3.31 141.83, 1.16 128.69 C-0.99 115.55, -0.81 101.75, 2.41 89.06 C5.63 76.37, 12.15 63.33, 20.49 52.54 C28.82 41.75, 40.52 32.34, 52.43 24.32 C64.33 16.29, 77.73 8.47, 91.92 4.4 C106.1 0.32, 121.03 -1.39, 137.53 -0.1 C154.04 1.18, 181.05 8.85, 190.93 12.09 C200.81 15.34, 197.76 17.64, 196.82 19.39 M174.04 6.25 C187.79 8.65, 200.88 17.52, 212.41 25.89 C223.95 34.27, 235.24 45.33, 243.27 56.5 C251.29 67.66, 257.81 80.08, 260.55 92.86 C263.29 105.65, 262.3 120.55, 259.71 133.22 C257.12 145.9, 252.11 157.84, 245.02 168.92 C237.94 179.99, 228.49 191.11, 217.18 199.68 C205.87 208.25, 190.95 215.3, 177.14 220.34 C163.32 225.38, 148.98 229.28, 134.29 229.92 C119.6 230.56, 103.13 228.44, 89 224.17 C74.86 219.9, 60.94 212.47, 49.48 204.28 C38.03 196.09, 28.32 186.05, 20.27 175.01 C12.23 163.98, 4.08 151.27, 1.21 138.07 C-1.66 124.88, 0.44 108.94, 3.05 95.85 C5.67 82.77, 9.87 70.73, 16.88 59.55 C23.89 48.37, 34.03 37.26, 45.09 28.79 C56.15 20.32, 69.5 13.72, 83.24 8.71 C96.97 3.7, 112.24 -0.97, 127.51 -1.28 C142.78 -1.59, 167.43 5.01, 174.86 6.86 C182.29 8.7, 172.99 8.02, 172.09 9.79" stroke="#1e1e1e" stroke-width="2" fill="none"></path></g><g transform="translate(391 101) rotate(0 69.30001068115234 22.5)"><text x="0" y="31.5" font-family="ui-monospace,monospace" font-size="36px" fill="#1e1e1e" text-anchor="start" style="white-space: pre;" direction="ltr" dominant-baseline="alphabetic">Parsery</text></g><g transform="translate(52 145) rotate(0 99.00001525878906 22.5)"><text x="0" y="31.5" font-family="ui-monospace,monospace" font-size="32px" fill="#1e1e1e" text-anchor="start" style="white-space: pre;" direction="ltr" dominant-baseline="alphabetic">Generatory</text></g><g transform="translate(359 770) rotate(0 59.40000915527344 22.5)"><text x="0" y="31.5" font-family="ui-monospace,monospace" font-size="36px" fill="#1e1e1e" text-anchor="start" style="white-space: pre;" direction="ltr" dominant-baseline="alphabetic">Motywy</text></g><g stroke-linecap="round" transform="translate(1118 452) rotate(0 156 131)"><path d="M32 0 C106.53 0.11, 179.15 0.41, 280 0 M32 0 C108.35 -0.73, 184.73 -0.49, 280 0 M280 0 C302 -0.83, 312.61 10.09, 312 32 M280 0 C303.1 -1.62, 310.79 10.01, 312 32 M312 32 C311.28 81.28, 312.19 131.07, 312 230 M312 32 C310.99 85.34, 311.55 140.59, 312 230 M312 230 C311.4 251.88, 302.66 262.45, 280 262 M312 230 C311.53 253.59, 302.08 263.76, 280 262 M280 262 C222.08 265.29, 161.92 262.64, 32 262 M280 262 C209.37 260.84, 140.98 260.74, 32 262 M32 262 C11.59 261.73, 0.57 252.44, 0 230 M32 262 C10.44 260.96, -1.01 253.38, 0 230 M0 230 C1.58 189.25, 1.6 151.73, 0 32 M0 230 C-0.05 181.78, -0.39 135.84, 0 32 M0 32 C-1.64 12.41, 11.51 -1.56, 32 0 M0 32 C2.03 8.8, 11.47 1.41, 32 0" stroke="#1e1e1e" stroke-width="2" fill="none"></path></g><g transform="translate(1154 540) rotate(0 118.80001831054688 45)"><text x="0" y="31.5" font-family="ui-monospace,monospace" font-size="36px" fill="#1e1e1e" text-anchor="start" style="white-space: pre;" direction="ltr" dominant-baseline="alphabetic">Wygenerowana</text><text x="0" y="76.5" font-family="ui-monospace,monospace" font-size="36px" fill="#1e1e1e" text-anchor="start" style="white-space: pre;" direction="ltr" dominant-baseline="alphabetic">dokumentacja</text></g><g stroke-linecap="round" transform="translate(634 760) rotate(0 125 111.5)"><path d="M96.94 1.94 C109.63 -2.48, 127.11 -0.86, 141.15 0.9 C155.18 2.65, 168.73 6.59, 181.17 12.47 C193.61 18.35, 206.06 26.86, 215.78 36.18 C225.51 45.51, 234.01 56.7, 239.54 68.44 C245.07 80.18, 248.29 93.96, 248.99 106.62 C249.69 119.28, 247.85 132.5, 243.74 144.39 C239.63 156.29, 232.81 167.79, 224.33 177.98 C215.84 188.17, 204.83 198.63, 192.83 205.54 C180.83 212.45, 166.28 216.8, 152.33 219.44 C138.38 222.08, 123.21 222.89, 109.15 221.41 C95.09 219.92, 80.51 216.09, 67.99 210.54 C55.47 205, 43.69 197.35, 34.02 188.13 C24.36 178.92, 15.59 167.07, 10 155.25 C4.41 143.42, 1.28 129.93, 0.48 117.19 C-0.32 104.46, 1 90.9, 5.19 78.83 C9.38 66.76, 17.02 54.8, 25.63 44.77 C34.23 34.74, 44.15 25.71, 56.82 18.65 C69.5 11.58, 93.11 5.02, 101.69 2.38 C110.26 -0.25, 107.78 1.03, 108.28 2.84 M155.24 2.16 C168.95 3.06, 184.21 10.56, 196.22 17.88 C208.23 25.2, 219.36 35.79, 227.29 46.08 C235.21 56.37, 240.11 67.52, 243.76 79.6 C247.42 91.67, 249.78 105.65, 249.21 118.52 C248.65 131.39, 246.18 145.16, 240.38 156.8 C234.58 168.43, 224.41 179.2, 214.41 188.35 C204.42 197.51, 192.95 206.27, 180.42 211.74 C167.89 217.2, 153.54 219.79, 139.25 221.14 C124.96 222.49, 108.89 222.54, 94.67 219.83 C80.45 217.12, 65.75 211.98, 53.94 204.87 C42.12 197.75, 31.93 187.83, 23.81 177.14 C15.68 166.46, 8.94 153, 5.18 140.75 C1.43 128.5, 0.55 116.31, 1.28 103.64 C2.01 90.97, 3.72 76.1, 9.56 64.71 C15.4 53.32, 26.07 44.22, 36.31 35.33 C46.54 26.43, 58.16 17.11, 70.98 11.34 C83.8 5.57, 98.96 1.81, 113.22 0.71 C127.48 -0.38, 149.69 3.97, 156.54 4.76 C163.39 5.55, 155.08 4.04, 154.34 5.45" stroke="#1e1e1e" stroke-width="2" fill="none"></path></g><g transform="translate(692 846) rotate(0 69.30001068115234 22.5)"><text x="0" y="31.5" font-family="ui-monospace,monospace" font-size="36px" fill="#1e1e1e" text-anchor="start" style="white-space: pre;" direction="ltr" dominant-baseline="alphabetic">Pluginy</text></g><g stroke-linecap="round"><g transform="translate(540.8134154866005 215.39858565482723) rotate(0 72.10393007784415 135.61191459042084)"><path d="M0.85 -0.07 C24.85 44.9, 120.29 225.25, 144.34 270.27 M-0.16 -1.16 C23.65 43.89, 119.29 225.99, 143.47 271.31" stroke="#1e1e1e" stroke-width="2" fill="none"></path></g><g transform="translate(540.8134154866005 215.39858565482723) rotate(0 72.10393007784415 135.61191459042084)"><path d="M124.93 254.54 C131.05 260.22, 135.76 267.15, 143.47 271.31 M124.93 254.54 C127.98 257.39, 131.7 260.97, 143.47 271.31" stroke="#1e1e1e" stroke-width="2" fill="none"></path></g><g transform="translate(540.8134154866005 215.39858565482723) rotate(0 72.10393007784415 135.61191459042084)"><path d="M140.04 246.55 C141.16 255, 140.84 264.59, 143.47 271.31 M140.04 246.55 C140 251.14, 140.61 256.37, 143.47 271.31" stroke="#1e1e1e" stroke-width="2" fill="none"></path></g></g><mask></mask><g stroke-linecap="round"><g transform="translate(239.33737247324984 256.3935120298658) rotate(0 192.48582270549832 137.07339782640693)"><path d="M0.77 0.24 C64.95 45.94, 319.9 228.68, 383.9 274.35 M-0.29 -0.68 C64.36 44.62, 322.02 226.28, 386.06 272.33" stroke="#1e1e1e" stroke-width="2" fill="none"></path></g><g transform="translate(239.33737247324984 256.3935120298658) rotate(0 192.48582270549832 137.07339782640693)"><path d="M361.95 265.68 C367.18 265.08, 371.94 267.9, 386.06 272.33 M361.95 265.68 C370.06 268.1, 376.59 268.92, 386.06 272.33" stroke="#1e1e1e" stroke-width="2" fill="none"></path></g><g transform="translate(239.33737247324984 256.3935120298658) rotate(0 192.48582270549832 137.07339782640693)"><path d="M371.86 251.75 C375.13 254, 377.9 259.61, 386.06 272.33 M371.86 251.75 C376.78 258.45, 380.24 263.58, 386.06 272.33" stroke="#1e1e1e" stroke-width="2" fill="none"></path></g></g><mask></mask><g stroke-linecap="round"><g transform="translate(512 708) rotate(0 63.5 -38.5)"><path d="M-0.44 1.17 C20.5 -11.38, 104.59 -63.38, 126.03 -76.45 M1.53 0.75 C22.8 -12.07, 107.15 -65.48, 128.23 -78.28" stroke="#1e1e1e" stroke-width="2" fill="none"></path></g><g transform="translate(512 708) rotate(0 63.5 -38.5)"><path d="M112.79 -58.62 C120.08 -66.74, 124.19 -69.74, 128.23 -78.28 M112.79 -58.62 C118.09 -63.29, 121.63 -69.93, 128.23 -78.28" stroke="#1e1e1e" stroke-width="2" fill="none"></path></g><g transform="translate(512 708) rotate(0 63.5 -38.5)"><path d="M103.76 -73.14 C113.93 -76.39, 121.05 -74.54, 128.23 -78.28 M103.76 -73.14 C111.59 -73.65, 117.66 -76.21, 128.23 -78.28" stroke="#1e1e1e" stroke-width="2" fill="none"></path></g></g><mask></mask><g stroke-linecap="round"><g transform="translate(750 742) rotate(0 1.5 -33.5)"><path d="M-0.87 0.9 C-0.45 -10.18, 3.22 -55.59, 3.68 -66.77 M0.88 0.33 C1.1 -11.11, 2.54 -57.37, 3.08 -68.77" stroke="#1e1e1e" stroke-width="2" fill="none"></path></g><g transform="translate(750 742) rotate(0 1.5 -33.5)"><path d="M10.74 -44.97 C9.26 -53.34, 5.11 -65.82, 3.08 -68.77 M10.74 -44.97 C7.68 -54.36, 5.95 -62.43, 3.08 -68.77" stroke="#1e1e1e" stroke-width="2" fill="none"></path></g><g transform="translate(750 742) rotate(0 1.5 -33.5)"><path d="M-6.35 -45.62 C-1.05 -53.6, 1.58 -65.83, 3.08 -68.77 M-6.35 -45.62 C-3.08 -54.89, 1.52 -62.73, 3.08 -68.77" stroke="#1e1e1e" stroke-width="2" fill="none"></path></g></g><mask></mask><g stroke-linecap="round" transform="translate(747 10) rotate(0 125 106.5)"><path d="M96.3 2.56 C108.92 -1.69, 125.25 -0.56, 139.25 0.81 C153.25 2.18, 167.51 5.32, 180.3 10.78 C193.08 16.25, 206.03 24.61, 215.95 33.59 C225.87 42.57, 234.33 53.46, 239.8 64.67 C245.28 75.88, 248.03 88.88, 248.79 100.85 C249.55 112.83, 248.09 124.85, 244.34 136.51 C240.6 148.17, 234.76 160.91, 226.31 170.82 C217.87 180.73, 205.72 189.38, 193.67 195.99 C181.62 202.6, 167.97 207.63, 154.01 210.47 C140.04 213.32, 123.88 214.51, 109.86 213.08 C95.85 211.64, 82.71 207.39, 69.93 201.85 C57.15 196.32, 43.15 188.89, 33.18 179.88 C23.2 170.88, 15.47 158.91, 10.08 147.82 C4.68 136.72, 1.7 125.4, 0.82 113.3 C-0.05 101.2, 0.74 86.95, 4.81 75.21 C8.87 63.47, 16.54 52.37, 25.23 42.88 C33.92 33.39, 44.21 25.07, 56.96 18.27 C69.7 11.48, 93.01 4.81, 101.68 2.11 C110.35 -0.59, 108.61 0.34, 108.96 2.08 M71.47 10.79 C82.73 4.37, 97.63 1.25, 111.9 0.27 C126.17 -0.71, 142.99 1.62, 157.06 4.9 C171.14 8.19, 184.8 13.19, 196.36 19.97 C207.93 26.75, 218.03 35.73, 226.47 45.59 C234.9 55.45, 243.32 67.52, 246.98 79.12 C250.63 90.72, 249.98 103.31, 248.43 115.19 C246.87 127.06, 243.49 139.51, 237.66 150.38 C231.84 161.26, 223.16 171.85, 213.46 180.44 C203.76 189.03, 192.14 196.61, 179.45 201.93 C166.77 207.26, 151.67 211.25, 137.34 212.4 C123.01 213.54, 107.22 211.97, 93.46 208.81 C79.69 205.64, 66.46 200.07, 54.75 193.4 C43.05 186.72, 31.7 178.61, 23.23 168.78 C14.76 158.95, 7.87 145.98, 3.93 134.4 C0 122.83, -1.4 111.17, -0.39 99.35 C0.63 87.53, 3.96 74.52, 10 63.49 C16.04 52.47, 25.41 41.87, 35.86 33.18 C46.3 24.48, 66.76 14.7, 72.67 11.33 C78.58 7.95, 70.55 11.62, 71.35 12.93" stroke="#1e1e1e" stroke-width="2" fill="none"></path></g><g transform="translate(761 94) rotate(0 110.8800170898437 20.999999999999996)"><text x="0" y="29.399999999999988" font-family="ui-monospace,monospace" font-size="30px" fill="#1e1e1e" text-anchor="start" style="white-space: pre;" direction="ltr" dominant-baseline="alphabetic">Konfiguracja</text></g><g stroke-linecap="round"><g transform="translate(859.347089702331 236.4997227296265) rotate(0 -42.710820575693106 131.46446515525412)"><path d="M-0.92 0.22 C-14.95 44.08, -71.33 220.11, -85.23 263.86 M0.79 -0.71 C-13.28 42.76, -71.87 218.13, -86.08 262.22" stroke="#1e1e1e" stroke-width="2" fill="none"></path></g><g transform="translate(859.347089702331 236.4997227296265) rotate(0 -42.710820575693106 131.46446515525412)"><path d="M-86.86 237.24 C-86.18 242.82, -84.83 249.62, -86.08 262.22 M-86.86 237.24 C-86.02 243.58, -87.23 250.67, -86.08 262.22" stroke="#1e1e1e" stroke-width="2" fill="none"></path></g><g transform="translate(859.347089702331 236.4997227296265) rotate(0 -42.710820575693106 131.46446515525412)"><path d="M-70.62 242.58 C-73.39 246.91, -75.46 252.59, -86.08 262.22 M-70.62 242.58 C-74.35 247.31, -80.1 252.9, -86.08 262.22" stroke="#1e1e1e" stroke-width="2" fill="none"></path></g></g><mask></mask><g stroke-linecap="round"><g transform="translate(852.9087757049078 569.2549773392564) rotate(0 128.35556502228974 1.0532297006404576)"><path d="M0.41 -0.84 C43.27 -0.69, 214.53 0.6, 257.33 1.03 M-0.83 1.34 C41.91 1.59, 213.79 1.75, 256.71 2.01" stroke="#1e1e1e" stroke-width="2" fill="none"></path></g><g transform="translate(852.9087757049078 569.2549773392564) rotate(0 128.35556502228974 1.0532297006404576)"><path d="M233.19 10.48 C239.16 8.78, 246.14 5.92, 256.71 2.01 M233.19 10.48 C239.31 7.71, 245.38 4.93, 256.71 2.01" stroke="#1e1e1e" stroke-width="2" fill="none"></path></g><g transform="translate(852.9087757049078 569.2549773392564) rotate(0 128.35556502228974 1.0532297006404576)"><path d="M233.24 -6.62 C239.22 -2.96, 246.18 -0.45, 256.71 2.01 M233.24 -6.62 C239.47 -4.74, 245.52 -2.87, 256.71 2.01" stroke="#1e1e1e" stroke-width="2" fill="none"></path></g></g><mask></mask><g stroke-linecap="round" transform="translate(31 464) rotate(0 142 117.5)"><path d="M32 0 C80.52 1.15, 129.19 1.9, 252 0 M32 0 C102.6 -0.52, 173.12 -0.6, 252 0 M252 0 C271.91 -1.15, 283.89 9.98, 284 32 M252 0 C273.77 -2.24, 284.47 10.73, 284 32 M284 32 C286.84 73.31, 285.64 113.07, 284 203 M284 32 C286.24 68.94, 284.67 104.76, 284 203 M284 203 C283.33 223.76, 275.21 235.99, 252 235 M284 203 C282.73 226.55, 272.16 234.63, 252 235 M252 235 C206.33 233.69, 157.34 234.72, 32 235 M252 235 C200.55 236.57, 148.68 235.72, 32 235 M32 235 C9.25 235.19, -1.6 222.8, 0 203 M32 235 C12.57 234.76, 0.25 224.31, 0 203 M0 203 C-0.32 144.76, 0.68 86.43, 0 32 M0 203 C0.26 149.11, 1.7 93.78, 0 32 M0 32 C1.2 12.41, 9.65 1.14, 32 0 M0 32 C-1.71 11.96, 10.66 -0.17, 32 0" stroke="#1e1e1e" stroke-width="2" fill="none"></path></g><g transform="translate(54 540) rotate(0 118.76402282714844 45)"><text x="0" y="31.5" font-family="ui-monospace,monospace" font-size="32px" fill="#1e1e1e" text-anchor="start" style="white-space: pre;" direction="ltr" dominant-baseline="alphabetic">Kod źródłowy</text><text x="0" y="76.5" font-family="ui-monospace,monospace" font-size="32px" fill="#1e1e1e" text-anchor="start" style="white-space: pre;" direction="ltr" dominant-baseline="alphabetic">aplikacji</text></g><g stroke-linecap="round"><g transform="translate(327.9791148708972 581.7523226446381) rotate(0 130.1690612892716 -0.6524096610366428)"><path d="M0.45 -0.24 C43.85 -0.35, 217.59 -1.35, 261.1 -1.72 M-0.77 -1.41 C42.47 -1.25, 216.87 -0.35, 260.56 -0.41" stroke="#1e1e1e" stroke-width="2" fill="none"></path></g><g transform="translate(327.9791148708972 581.7523226446381) rotate(0 130.1690612892716 -0.6524096610366428)"><path d="M237.04 8.09 C245.24 6.2, 253.45 3.82, 260.56 -0.41 M237.04 8.09 C242.34 6.7, 246.88 4.86, 260.56 -0.41" stroke="#1e1e1e" stroke-width="2" fill="none"></path></g><g transform="translate(327.9791148708972 581.7523226446381) rotate(0 130.1690612892716 -0.6524096610366428)"><path d="M237.09 -9.01 C245.11 -4.71, 253.31 -0.9, 260.56 -0.41 M237.09 -9.01 C242.39 -6.91, 246.92 -5.25, 260.56 -0.41" stroke="#1e1e1e" stroke-width="2" fill="none"></path></g></g><mask></mask></svg>
