<svg enable-background="new 0 0 800 800" height="800" viewBox="0 0 800 800" width="800" xmlns="http://www.w3.org/2000/svg"><path d="m0 0h801v801h-801z" fill="#fff"/><path d="m71.523 575.814c0-23.447 17.896-40.551 42.022-40.551 12.233 0 22.881 4.191 30.131 12.348l-7.363 7.135c-6.115-6.459-13.592-9.4-22.314-9.4-17.898 0-31.147 12.91-31.147 30.469 0 17.555 13.249 30.467 31.147 30.467 8.722 0 16.199-3.055 22.314-9.512l7.363 7.133c-7.25 8.158-17.897 12.461-30.243 12.461-24.014-.001-41.91-17.104-41.91-40.55z"/><path d="m150.248 585.441c0-17.895 13.254-30.582 31.262-30.582 18.012 0 31.151 12.688 31.151 30.582 0 17.896-13.139 30.697-31.151 30.697-18.009.001-31.262-12.8-31.262-30.697zm51.426 0c0-12.799-8.606-21.068-20.164-21.068-11.551 0-20.275 8.27-20.275 21.068 0 12.801 8.724 21.18 20.275 21.18 11.557 0 20.164-8.379 20.164-21.18z"/><path d="m284.704 580.91v34.547h-10.874v-33.303c0-11.779-5.892-17.555-16.199-17.555-11.554 0-19.027 6.908-19.027 19.938v30.92h-10.876v-60.033h10.42v9.062c4.419-6.117 12.123-9.627 21.635-9.627 14.61 0 24.921 8.383 24.921 26.051z"/><path d="m317.779 546.023v27.639h39.76v9.738h-39.76v32.057h-11.327v-79.287h55.956v9.854h-44.629z"/><path d="m407.942 555.197v10.535c-.903-.113-1.699-.113-2.491-.113-11.664 0-18.915 7.137-18.915 20.273v29.906h-10.874v-60.035h10.421v10.082c3.851-7.021 11.325-10.648 21.859-10.648z"/><path d="m415.192 585.441c0-17.895 13.255-30.582 31.264-30.582 18.012 0 31.15 12.688 31.15 30.582 0 17.896-13.139 30.697-31.15 30.697-18.009.001-31.264-12.8-31.264-30.697zm51.427 0c0-12.799-8.609-21.068-20.163-21.068s-20.275 8.27-20.275 21.068c0 12.801 8.722 21.18 20.275 21.18s20.163-8.379 20.163-21.18z"/><path d="m549.645 580.91v34.547h-10.873v-33.303c0-11.779-5.89-17.555-16.197-17.555-11.554 0-19.026 6.908-19.026 19.938v30.92h-10.879v-60.033h10.421v9.062c4.419-6.117 12.12-9.627 21.638-9.627 14.608 0 24.916 8.383 24.916 26.051z"/><path d="m603.565 611.947c-3.284 2.834-8.27 4.191-13.139 4.191-12.123 0-19.031-6.684-19.031-18.803v-32.963h-10.193v-8.949h10.193v-13.139h10.875v13.139h17.219v8.949h-17.219v32.51c0 6.455 3.397 10.082 9.398 10.082 3.175 0 6.231-1.023 8.499-2.836z"/><path d="m605.377 604.922 6.568-7.701c4.307 6.117 9.858 9.4 16.539 9.4 8.952 0 13.593-5.436 13.593-16.084v-44.514h-28.656v-9.854h39.869v53.803c0 17.67-8.606 26.391-24.806 26.391-9.399 0-18.008-4.078-23.107-11.441z"/><path d="m669.149 606.395 4.19-8.832c5.888 5.322 15.97 9.172 26.165 9.172 13.707 0 19.596-5.322 19.596-12.23 0-19.371-48.029-7.135-48.029-36.586 0-12.234 9.519-22.654 30.36-22.654 9.287 0 18.915 2.492 25.485 7.021l-3.74 9.062c-6.906-4.42-14.724-6.459-21.745-6.459-13.481 0-19.256 5.666-19.256 12.576 0 19.367 48.025 7.248 48.025 36.359 0 12.117-9.741 22.539-30.696 22.539-12.119 0-24.013-4.078-30.355-9.968z"/><path d="m534.671 521.211c-4.294 0-8.577-.631-12.732-1.867-9.524-2.84-17.654-8.645-23.377-16.592-4.962.633-10.006.953-15.069.953-31.337 0-61.377-12.482-83.547-34.484-16.951 6.609-34.823 9.953-53.226 9.953-13.967 0-27.701-1.947-40.941-5.801-2.123 2.838-4.594 5.414-7.39 7.709-9.068 7.461-20.883 11.072-32.564 9.939-11.798-1.141-22.468-6.824-30.046-15.996-5.021-6.096-8.328-13.377-9.579-21.072-.636-3.732-.77-7.646-.38-11.559.071-.699.154-1.365.24-2.029l1.4-8.268 14.216 3.717c-24.79-27.023-42.134-66.957-42.134-103.819 0-81.154 66.025-147.178 147.179-147.178 55.99 0 106.914 31.797 131.74 81.622 1.685-.073 3.362-.109 5.032-.109 65.447 0 118.694 53.246 118.694 118.694 0 21.723-5.952 42.995-17.214 61.515-2.815 4.625-5.96 9.078-9.352 13.246-3.583 4.4-7.587 8.408-11.736 12.238.021.018-.905 1.045-1.021 1.139l16.773 4.609-1.91 10.088c.003.035-.206.816-.447 1.598-1.115 3.719-2.686 7.25-4.678 10.5-4.051 6.637-9.857 12.137-16.789 15.879-6.528 3.518-13.834 5.375-21.142 5.375z" fill="#a64ac9"/><path d="m578.883 483.623c-.114.66-.233 1.318-.373 2.012-.643 3.135-2.877 8.926-2.877 8.926l-.102.207c-.808 1.84-1.733 3.617-2.774 5.314-4.051 6.637-9.857 12.133-16.786 15.877-6.528 3.518-13.836 5.373-21.145 5.373-4.294 0-8.577-.627-12.731-1.865-9.525-2.842-17.655-8.645-23.377-16.59-4.963.633-10.006.953-15.068.953-33.847 0-66.182-14.562-88.717-39.951-2.579-2.883-5.08-5.99-7.407-9.201-14.756-20.334-22.555-44.379-22.555-69.528 0-55.947 39.733-104.823 94.481-116.217 3.818-.795 7.758-1.405 11.716-1.813 4.117-.439 8.331-.663 12.482-.663 65.448 0 118.695 53.245 118.695 118.694 0 21.72-5.952 42.991-17.216 61.515-2.813 4.621-5.958 9.076-9.35 13.246-2.995 3.678-6.203 7.174-9.601 10.461l-.418.395 13.757-1.617c.001-.003.837 7.208-.634 14.472z" fill="#17e9e0"/><path d="m485.898 284.04c-1.248-3.629-2.686-7.297-4.262-10.867-.994-2.276-2.062-4.505-3.162-6.711-2.491.107-4.979.267-7.437.529-3.958.406-7.897 1.017-11.716 1.814-54.749 11.393-94.481 60.267-94.481 116.214 0 25.149 7.799 49.194 22.555 69.53 2.327 3.213 4.829 6.316 7.407 9.199 1.671 1.885 3.403 3.699 5.177 5.461 2.3-.896 4.582-1.85 6.844-2.865 3.499-1.559 7.016-3.312 10.428-5.195 22.097-12.107 40.854-29.787 54.236-51.117 2.235-3.561 4.37-7.312 6.339-11.154 10.531-20.558 16.1-43.685 16.1-66.888.001-16.411-2.701-32.549-8.028-47.95z" fill="#5e99d3"/><g fill="#fff"><path d="m447.728 256.248c.955 1.275 1.891 2.567 2.799 3.877l10.872-2.468c-.671-1.031-1.356-2.053-2.053-3.063"/><path d="m459.346 254.593c-24.678-35.799-65.968-59.312-112.652-59.312-75.419 0-136.772 61.369-136.772 136.772 0 39.978 17.23 76 44.672 101.021 1.028.936 2.067 1.859 3.124 2.75-.386.371-.79.729-1.205 1.068-2.826 2.334-6.081 3.939-9.559 4.773-2.529.609-5.16.787-7.791.533-.953-.104-1.887-.252-2.81-.461-.073.58-.148 1.162-.206 1.742-.299 3.002-.194 5.977.296 8.859.953 5.857 3.449 11.402 7.329 16.115 5.798 7.018 13.96 11.389 23.028 12.264 9.054.879 17.93-1.842 24.96-7.623 4.059-3.332 7.212-7.467 9.338-12.104 14.271 5.084 29.614 7.834 45.596 7.834 19.875 0 38.786-4.266 55.839-11.922 0 0 3.303-1.365 9.664-4.818 20.59-11.283 37.981-27.697 50.427-47.528 2.111-3.359 4.074-6.824 5.886-10.36 9.56-18.659 14.957-39.783 14.957-62.144 0-8.242-.737-16.318-2.143-24.167l-10.349 1.214c1.37 7.445 2.085 15.117 2.085 22.954 0 17.768-3.688 34.684-10.334 50.042-1.783 4.132-3.79 8.147-6.006 12.042-11.968 21.141-29.852 38.504-51.379 49.833-5.456 2.77-9.574 4.535-9.574 4.535-15.104 6.379-31.681 9.916-49.074 9.916-14.614 0-28.647-2.512-41.731-7.105-1.263-.432-2.512-.891-3.746-1.367-.386-.148-.772-.299-1.161-.461-1.351-.535-2.689-1.086-3.998-1.697-1.292-.578-2.573-1.188-3.836-1.826-2.497-1.25-4.922-2.633-7.285-4.088l-5.752 8.65c1.205.76 2.407 1.504 3.655 2.201 2.782 1.576 5.651 3.062 8.58 4.387l-.014.029c-1.101 2.244-2.544 4.312-4.312 6.123l.578-.578c-.625.727-1.307 1.383-2.021 2.008l1.277-1.264c-.563.562-1.158 1.115-1.783 1.635-4.875 4.012-11.045 5.9-17.334 5.291-6.303-.607-11.983-3.643-16.01-8.518-2.334-2.84-3.955-6.111-4.756-9.59 5.856-.949 11.385-3.451 16.083-7.314.996-.816 1.919-1.678 2.796-2.588l.015-.014c.148-.148.209-.207.7-.697 1.455-1.486 3.345-3.881 3.345-3.881.848-1.16 1.62-2.365 2.317-3.613l-.354-.268c-2.648-1.934-5.235-3.982-7.718-6.141-.238-.191-.458-.4-.682-.592-2.854-2.5-5.575-5.117-8.208-7.838-21.672-22.715-35.009-53.444-35.009-87.251 0-69.679 56.684-126.366 126.366-126.366 41.267 0 77.962 19.881 101.034 50.561"/><path d="m394.638 426.164c-5.804-12.498-9.04-26.416-9.04-41.082 0-47.826 34.46-87.743 79.864-96.215 0 0 4.223-.836 10.54-1.384 2.469-.193 4.951-.283 7.463-.283 53.981 0 97.882 43.901 97.882 97.882 0 21.839-7.195 42.044-19.342 58.337-2.825 3.807-5.917 7.389-9.276 10.734-1.43 1.455-2.931 2.869-4.461 4.223-.061.043-.119.104-.177.148-3.183 2.811-6.557 5.426-10.097 7.789l-.104.059c.282 1.873.729 3.717 1.34 5.531 0 0 1.057 2.854 1.991 4.713.386.771.357.699.534 1.039.7 1.281 1.472 2.516 2.32 3.688 2.63 3.717 5.976 6.809 9.843 9.145-2.067 2.93-4.787 5.336-8.028 7.09-5.575 3.02-11.969 3.688-18.049 1.873-5.723-1.707-10.525-5.441-13.572-10.568 3.108-.906 6.168-1.979 9.156-3.168 1.323-.52 2.633-1.084 3.926-1.664l-4.489-9.367c-2.544 1.113-5.146 2.143-7.79 3.033-1.339.445-2.692.877-4.046 1.279-3.33.98-6.733 1.785-10.197 2.408-5.633 1.012-11.446 1.545-17.363 1.545-20.406 0-39.376-6.277-55.073-17l-9.547 5.947c18.04 13.473 40.412 21.459 64.62 21.459 6.971 0 13.78-.652 20.381-1.93.237.52.505 1.039.774 1.545 4.341 7.998 11.536 13.855 20.262 16.457 8.729 2.602 17.93 1.635 25.959-2.691 5.366-2.898 9.768-7.092 12.859-12.16 1.53-2.498 2.735-5.203 3.599-8.102.177-.566.325-1.133.459-1.695-.936-.148-1.858-.357-2.78-.639-2.528-.744-4.906-1.904-7.003-3.422-1.679-1.205-3.194-2.615-4.504-4.207-.133-.162-.267-.324-.4-.504-.804-1.039-1.533-2.141-2.157-3.303-.386-.711-.743-1.439-1.025-2.182 6.513-5.057 12.428-10.855 17.632-17.246 3.106-3.82 5.96-7.865 8.533-12.088 9.963-16.381 15.699-35.59 15.699-56.107 0-59.719-48.568-108.289-108.287-108.289-3.851 0-7.657.209-11.418.61-4.79.526-10.658 1.65-10.658 1.65-49.149 10.228-86.197 53.876-86.197 106.028 0 16.15 3.557 31.49 9.927 45.271z"/></g></svg>