<svg xmlns="http://www.w3.org/2000/svg">
	<symbol viewBox="0 0 24 24" id="author">
		<circle cx="12" cy="8" r="3.25" stroke-linecap="round" stroke-linejoin="round"
				stroke-width="1.5"/>
		<path stroke-linecap="round" stroke-linejoin="round" stroke-width="1.5"
			  d="M6.8475 19.25H17.1525C18.2944 19.25 19.174 18.2681 18.6408 17.2584C17.8563 15.7731 16.068 14 12 14C7.93201 14 6.14367 15.7731 5.35924 17.2584C4.82597 18.2681 5.70558 19.25 6.8475 19.25Z"/>
	</symbol>

	<symbol viewBox="0 0 24 24" id="category">
		<circle cx="15" cy="9" r="1" fill="currentColor"/>
		<path stroke-linecap="round" stroke-linejoin="round" stroke-width="1.5"
			  d="M12 4.75H19.25V12L12.5535 18.6708C11.7544 19.4668 10.4556 19.445 9.68369 18.6226L5.28993 13.941C4.54041 13.1424 4.57265 11.8895 5.36226 11.1305L12 4.75Z"/>
	</symbol>

	<symbol viewBox="0 0 24 24" id="project">
		<path stroke-linecap="round" stroke-linejoin="round" stroke-width="1.5"
			  d="M4.75 6.75C4.75 5.64543 5.64543 4.75 6.75 4.75H17.25C18.3546 4.75 19.25 5.64543 19.25 6.75V17.25C19.25 18.3546 18.3546 19.25 17.25 19.25H6.75C5.64543 19.25 4.75 18.3546 4.75 17.25V6.75Z"/>
		<path stroke-linecap="round" stroke-linejoin="round" stroke-width="1.5"
			  d="M9.75 8.75V19"/>
		<path stroke-linecap="round" stroke-linejoin="round" stroke-width="1.5" d="M5 8.25H19"/>
	</symbol>

	<symbol viewBox="0 0 24 24" id="published">
		<path stroke-linecap="round" stroke-linejoin="round" stroke-width="1.5"
			  d="M4.75 8.75C4.75 7.64543 5.64543 6.75 6.75 6.75H17.25C18.3546 6.75 19.25 7.64543 19.25 8.75V17.25C19.25 18.3546 18.3546 19.25 17.25 19.25H6.75C5.64543 19.25 4.75 18.3546 4.75 17.25V8.75Z"/>
		<path stroke-linecap="round" stroke-linejoin="round" stroke-width="1.5" d="M8 4.75V8.25"/>
		<path stroke-linecap="round" stroke-linejoin="round" stroke-width="1.5"
			  d="M16 4.75V8.25"/>
		<path stroke-linecap="round" stroke-linejoin="round" stroke-width="1.5"
			  d="M7.75 10.75H16.25"/>
	</symbol>

	<symbol viewBox="0 0 455.731 455.731" id="rss">
		<g>
			<path d="M296.208,159.16C234.445,97.397,152.266,63.382,64.81,63.382v64.348
			c70.268,0,136.288,27.321,185.898,76.931c49.609,49.61,76.931,115.63,76.931,185.898h64.348
			C391.986,303.103,357.971,220.923,296.208,159.16z"/>
			<path d="M64.143,172.273v64.348c84.881,0,153.938,69.056,153.938,153.939h64.348
			C282.429,270.196,184.507,172.273,64.143,172.273z"/>
			<circle cx="109.833" cy="346.26" r="46.088"/>
		</g>
	</symbol>
</svg>
