<svg xmlns="http://www.w3.org/2000/svg" xml:space="preserve" viewBox="0 0 813 813"><defs><style>path{fill:#111}</style></defs><path d="M694 417c-2.41 3.17-6.19 3.76-9.61 4.95-26.31 9.1-36.64 41.72-24.49 64.53 3.73 6.99 9.17 12.59 16.09 16.74 2.94 1.76 7.9 3.39 6.01 7.79-1.69 3.96-6.51 2.46-9.99 1.89-17.36-2.85-32.44 1.28-44.55 14.36-11.48 12.4-12.73 27.25-9.8 43.03.89 4.78 2.58 9.29 3.99 13.9.57 1.87.77 3.63-.89 5.04-1.59 1.36-3.22.47-4.66-.27-1.92-.98-3.73-2.18-5.55-3.36-16.54-10.78-35.09-16.32-54.41-15.86-33.93.81-60.51 16.23-78.97 45.09-8.52 13.31-16.22 27.16-28.08 38.1-6.41 5.92-12.94 11.53-20.63 15.66-13.29 7.13-26.67 7.59-39.99.02-15.39-8.74-27.44-21.01-37.17-35.63-5.17-7.76-9.74-15.95-15.21-23.49-16.87-23.23-39.52-36.8-68.33-39.22-22.68-1.9-43.47 3.99-62.62 16.15-2.66 1.69-5.58 5.09-8.84 2.67-3.47-2.58-.46-6.16.43-9.15 2.89-9.64 4.42-19.27 3.44-29.48-2.27-23.65-26.76-42.52-54.24-37.75-2.12.37-4.29.51-6.44.54-2.05.03-4.19-.3-4.9-2.6-.64-2.05.79-3.46 2.26-4.63a43 43 0 0 1 4.09-2.85c16.93-10.53 23.43-26.12 20.5-45.28-2.7-17.6-12.64-30.12-29.8-36.26-3.12-1.12-6.48-1.75-8.67-4.61v-3c2.49-2.87 6.06-3.34 9.44-4.09 16.05-3.58 30.51-10.1 42.82-21.39 24.27-22.25 35.4-49.4 31.59-82.31-1.32-11.41-2.9-22.82-3.03-34.28-.31-27.38 2.26-54.42 10.54-80.64.32-1.01.65-2.02.98-3.03.44-1.31 1.85-5.42 2.57-5.64 2.57-.77 3.76 2.27 5.24 3.87 31.61 34.31 54.08 73.7 65.71 119.04.7 2.74 1.81 4.63 4.74 4.93 7.24.75 14.29.45 20.76-3.55 6.65-4.12 6.98-4.55 4.95-11.97-8.29-30.34-21.18-58.51-39.8-83.96-.97-1.33-3.41-2.92-1.81-4.54 1.55-1.58 3.15.84 4.67 1.65.29.15.53.4.8.6 23.48 17.39 43.42 38.33 61.36 61.25 2.21 2.82 4.51 3.86 7.99 3.85 37.32-.09 74.65-.09 111.97 0 3.48.01 5.76-1.06 8-3.85 13.66-17.05 27.81-33.67 44.67-47.72 6.27-5.22 12.72-10.22 19.14-15.27.87-.68 2.07-1.63 3.12-.59 1.14 1.12-.19 2.09-.72 3.02-.5.86-1.11 1.66-1.7 2.47-17.88 24.31-30.19 51.31-38.52 80.2-3.1 10.73-1.57 13.44 9.15 17.2 1.26.44 2.53.85 3.83 1.13 11.61 2.48 15.04.44 18.05-10.66.13-.48.22-.98.36-1.45 12.8-42.53 34.34-80.04 64.64-112.51 4.61-4.94 4.77-4.78 6.92 1.55 6.09 17.93 8.99 36.44 10.81 55.21 1.68 17.32 1.29 34.57-.81 51.81-1.63 13.39-3.73 26.79-.65 40.21 9.21 40.15 33.51 65.6 73.79 75.38 3.37.82 6.95 1.24 9.44 4.1.02.96.02 1.96.02 2.96m-341.28 49.36c-.19-3.22-.89-7.15-2.39-10.88-8.37-20.89-24.06-34.73-43.59-44.72-3.68-1.88-7.91-2.62-12.14-2.43-6.04.27-9.15 3.45-9.32 9.46-.15 5.26 1.01 10.29 3.3 14.98 8.16 16.76 20.19 30 36.28 39.51 5.11 3.02 10.63 4.73 16.5 5.3 7.33.7 11.39-3.07 11.36-11.22m178.97-45.85c.2-9.14-3.64-12.84-11.7-12.12-5.54.49-10.68 2.31-15.5 5.16-11.92 7.06-21.94 16.24-30.17 27.31-5.76 7.75-9.58 16.42-10 26.2-.32 7.39 3.91 11.25 11.21 10.5 4.98-.51 9.82-1.62 14.31-4.06 17.55-9.58 30.39-23.57 38.93-41.55 1.88-3.96 2.7-8.21 2.92-11.44M408.71 596.28c-9.81 0-19.62-.02-29.43.02-1.42.01-3.3-.61-4.07 1.04-.78 1.66.87 2.7 1.83 3.75 8.61 9.47 17.21 18.96 25.93 28.33 4.37 4.69 6.73 4.68 11.14-.06 8.72-9.38 17.31-18.86 25.92-28.34.95-1.04 2.62-2.08 1.73-3.75-.84-1.57-2.69-.96-4.11-.97-9.65-.04-19.3-.02-28.94-.02"/><path id="crown" d="M409 122c.5.99 4.67 17.71 6.24 25.07 4.28 20.15 8.23 40.37 12.33 60.68.17-.05 3.54-7.12 7.86-16.05 7.5-15.52 17.88-36.67 19.38-36.41 2.05.35 1.66 2.71 1.81 4.24.59 6.29 1.04 12.6 1.41 18.91 1.12 18.94 2.11 37.89 3.33 56.82.29 4.55-1.22 6.11-5.86 6.09-31.33-.16-62.67-.16-94 0-4.64.02-6.18-1.53-5.86-6.09 1.39-20.08 2.57-40.18 3.88-60.27.22-3.39.49-10.36 1.13-15.03.37-2.65.85-4.56 1.52-4.69 2.16-.4 25.13 50.04 25.81 51.41.32.64 1.22 1.63 1.28 1.35.65-3.15 1.29-6.22 1.91-9.23 1.53-7.38 15.58-74.96 16.81-76.79.35-.01.69-.01 1.02-.01"/></svg>